<?xml version="1.0" standalone="no"?>
<!DOCTYPE svg PUBLIC "-//W3C//DTD SVG 20010904//EN"
 "http://www.w3.org/TR/2001/REC-SVG-20010904/DTD/svg10.dtd">
<svg version="1.0" xmlns="http://www.w3.org/2000/svg"
 width="512.000000pt" height="512.000000pt" viewBox="0 0 512.000000 512.000000"
 preserveAspectRatio="xMidYMid meet">
<metadata>
Created by potrace 1.14, written by Peter Selinger 2001-2017
</metadata>
<g transform="translate(0.000000,512.000000) scale(0.100000,-0.100000)"
fill="#000000" stroke="none">
<path d="M1945 4773 c-191 -22 -358 -94 -519 -224 -84 -67 -136 -126 -190
-217 -75 -125 -103 -243 -101 -427 2 -135 5 -159 32 -309 l17 -89 26 85 c82
262 201 395 386 429 60 11 155 6 199 -11 14 -5 25 -8 25 -5 0 2 14 0 31 -5 28
-8 65 -13 214 -25 49 -4 112 17 131 43 23 33 136 99 208 121 89 28 141 26 234
-5 181 -61 315 -188 399 -379 30 -69 73 -219 73 -259 1 -40 17 6 29 84 36 219
36 412 2 528 -67 228 -208 377 -407 429 -39 10 -103 38 -147 64 -122 74 -273
132 -428 165 -32 6 -176 11 -214 7z"/>
<path d="M2417 4016 c-49 -21 -117 -67 -165 -114 -31 -29 -89 -44 -177 -45
-108 -1 -157 5 -314 38 -178 37 -296 -24 -380 -198 -121 -253 -138 -504 -54
-772 52 -164 151 -330 271 -450 17 -18 32 -39 32 -46 0 -28 -44 -159 -54 -160
-6 0 -18 -2 -26 -4 -8 -2 -31 -6 -50 -9 -19 -4 -78 -18 -130 -31 -364 -93
-641 -278 -760 -506 -49 -94 -88 -205 -96 -269 -2 -25 -7 -52 -9 -60 -4 -14
-8 -247 -6 -347 2 -80 -94 -74 1195 -75 631 0 1148 1 1151 3 2 2 -1 27 -6 54
-23 117 -6 327 35 449 27 79 72 172 117 237 59 89 190 216 282 274 92 58 95
51 -58 125 -130 63 -250 104 -405 138 l-125 28 -23 82 -23 81 34 33 c41 41
122 146 165 213 27 43 42 75 92 190 20 45 52 170 64 252 13 85 14 262 2 333
-35 206 -102 355 -200 443 -130 120 -267 160 -379 113z"/>
<path d="M3717 2014 c-1 -1 -24 -5 -52 -8 -321 -42 -607 -297 -690 -617 -24
-90 -25 -101 -25 -216 -1 -274 132 -524 365 -691 60 -42 161 -88 255 -115 109
-31 322 -31 434 1 285 82 504 299 587 583 25 85 35 304 18 379 -6 25 -12 52
-14 60 -10 46 -56 154 -92 215 -119 202 -335 353 -563 394 -53 10 -217 20
-223 15z m256 -446 c9 -11 17 -26 17 -32 0 -14 -26 -84 -145 -396 -48 -124
-98 -256 -112 -293 -26 -69 -57 -99 -97 -93 -28 4 -56 34 -56 60 0 19 121 353
160 441 9 19 20 49 90 232 18 47 41 90 53 98 27 19 65 12 90 -17z m-479 -119
c29 -14 47 -55 36 -84 -4 -11 -45 -57 -91 -102 l-83 -82 87 -88 c72 -72 87
-94 87 -119 0 -44 -31 -69 -83 -65 -9 0 -71 55 -137 122 -97 98 -120 126 -120
149 0 42 217 261 277 279 1 1 13 -4 27 -10z m764 -123 c113 -113 124 -127 119
-153 -4 -18 -49 -72 -123 -147 -103 -107 -120 -120 -150 -120 -43 0 -65 21
-66 63 -1 28 11 45 85 119 l87 87 -76 75 c-90 90 -108 123 -88 161 15 30 27
37 64 38 18 1 54 -29 148 -123z"/>
</g>
</svg>
